/* XPM */
static char * C:\Users\alexn\Desktop\All_things_coding\WinDoom\gfx\hud\enemyhp_xpm[] = {
"94 40 7 1",
" 	c None",
".	c #FF00FF",
"+	c #000000",
"@	c #62987E",
"#	c #C8C8C8",
"$	c #F0D048",
"%	c #F08000",
"....++++++++++++++++++++++++++++++++++++++++++++++++++++++++++++++++++++++++++++++++++++++....",
"....++++++++++++++++++++++++++++++++++++++++++++++++++++++++++++++++++++++++++++++++++++++....",
"..++++++++++++++++++++++++++++++++++++++++++++++++++++++++++++++++++++++++++++++++++++++++++..",
"..++++++++++++++++++++++++++++++++++++++++++++++++++++++++++++++++++++++++++++++++++++++++++..",
"++++@@@@@@@@@@@@@@@@@@@@@@@@@@@@@@@@@@@@@@@@@@@@@@@@@@@@@@@@@@@@@@@@@@@@@@@@@@@@@@@@@@@@@@++++",
"++++@@@@@@@@@@@@@@@@@@@@@@@@@@@@@@@@@@@@@@@@@@@@@@@@@@@@@@@@@@@@@@@@@@@@@@@@@@@@@@@@@@@@@@++++",
"++++@@##@@@@##@@########@@@@++++++++++++++++++++++++++++++++++++++++++++++++++++++++++++@@++++",
"++++@@##@@@@##@@########@@@@++++++++++++++++++++++++++++++++++++++++++++++++++++++++++++@@++++",
"++++@@########@@##@@@@##@@++$$$$$$$$$$$$$$$$$$$$$$$$$$$$$$$$$$$$$$$$$$$$$$$$$$$$$$$$$$$$++++++",
"++++@@########@@##@@@@##@@++$$$$$$$$$$$$$$$$$$$$$$$$$$$$$$$$$$$$$$$$$$$$$$$$$$$$$$$$$$$$++++++",
"++++@@##@@@@##@@########@@++$$$$$$$$$$$$$$$$$$$$$$$$$$$$$$$$$$$$$$$$$$$$$$$$$$$$$$$$$$$$++++++",
"++++@@##@@@@##@@########@@++$$$$$$$$$$$$$$$$$$$$$$$$$$$$$$$$$$$$$$$$$$$$$$$$$$$$$$$$$$$$++++++",
"++++@@##@@@@##@@##@@@@@@@@@@++++++++++++++++++++++++++++++++++++++++++++++++++++++++++++@@++++",
"++++@@##@@@@##@@##@@@@@@@@@@++++++++++++++++++++++++++++++++++++++++++++++++++++++++++++@@++++",
"++++@@@@@@@@@@@@@@@@@@@@@@@@@@@@@@@@@@@@@@@@@@@@@@@@@@@@@@@@@@@@@@@@@@@@@@@@@@@@@@@@@@@@@@++++",
"++++@@@@@@@@@@@@@@@@@@@@@@@@@@@@@@@@@@@@@@@@@@@@@@@@@@@@@@@@@@@@@@@@@@@@@@@@@@@@@@@@@@@@@@++++",
"..++++++++++++++++++++++++++++++++++++++++++++++++++++++++++++++++++++++++++++++++++++++++++..",
"..++++++++++++++++++++++++++++++++++++++++++++++++++++++++++++++++++++++++++++++++++++++++++..",
"....++++++++++++++++++++++++++++++++++++++++++++++++++++++++++++++++++++++++++++++++++++++....",
"....++++++++++++++++++++++++++++++++++++++++++++++++++++++++++++++++++++++++++++++++++++++....",
"....................................++++%%%%%%%%%%%%%%%%++++..................................",
"....................................++++%%%%%%%%%%%%%%%%++++..................................",
"......................................++%%%%%%%%%%%%%%%%++....................................",
"......................................++%%%%%%%%%%%%%%%%++....................................",
"......................................++++%%%%%%%%%%%%++++....................................",
"......................................++++%%%%%%%%%%%%++++....................................",
"........................................++%%%%%%%%%%%%++......................................",
"........................................++%%%%%%%%%%%%++......................................",
"........................................++++%%%%%%%%++++......................................",
"........................................++++%%%%%%%%++++......................................",
"..........................................++%%%%%%%%++........................................",
"..........................................++%%%%%%%%++........................................",
"..........................................++++%%%%++++........................................",
"..........................................++++%%%%++++........................................",
"............................................++%%%%++..........................................",
"............................................++%%%%++..........................................",
"............................................++++++++..........................................",
"............................................++++++++..........................................",
"..............................................++++............................................",
"..............................................++++............................................"};
