/* XPM */
static char * C:\Users\alexn\Desktop\All_things_coding\Hive_main\wolf3d\gfx\hud\enemyhp_xpm[] = {
"94 40 16 1",
" 	c #000000",
".	c #62987E",
"+	c #FF00FF",
"@	c #F08000",
"#	c #F0D048",
"$	c #C8C8C8",
"%	c #000000",
"&	c #000000",
"*	c #000000",
"=	c #000000",
"-	c #000000",
";	c #000000",
">	c #000000",
",	c #000000",
"'	c #000000",
")	c #000000",
"++++                                                                                      ++++",
"++++                                                                                      ++++",
"++                                                                                          ++",
"++                                                                                          ++",
"    ......................................................................................    ",
"    ......................................................................................    ",
"    ..$$....$$..$$$$$$$$....                                                            ..    ",
"    ..$$....$$..$$$$$$$$....                                                            ..    ",
"    ..$$$$$$$$..$$....$$..  ############################################################      ",
"    ..$$$$$$$$..$$....$$..  ############################################################      ",
"    ..$$....$$..$$$$$$$$..  ############################################################      ",
"    ..$$....$$..$$$$$$$$..  ############################################################      ",
"    ..$$....$$..$$..........                                                            ..    ",
"    ..$$....$$..$$..........                                                            ..    ",
"    ......................................................................................    ",
"    ......................................................................................    ",
"++                                                                                          ++",
"++                                                                                          ++",
"++++                                                                                      ++++",
"++++                                                                                      ++++",
"++++++++++++++++++++++++++++++++++++    @@@@@@@@@@@@@@@@    ++++++++++++++++++++++++++++++++++",
"++++++++++++++++++++++++++++++++++++    @@@@@@@@@@@@@@@@    ++++++++++++++++++++++++++++++++++",
"++++++++++++++++++++++++++++++++++++++  @@@@@@@@@@@@@@@@  ++++++++++++++++++++++++++++++++++++",
"++++++++++++++++++++++++++++++++++++++  @@@@@@@@@@@@@@@@  ++++++++++++++++++++++++++++++++++++",
"++++++++++++++++++++++++++++++++++++++    @@@@@@@@@@@@    ++++++++++++++++++++++++++++++++++++",
"++++++++++++++++++++++++++++++++++++++    @@@@@@@@@@@@    ++++++++++++++++++++++++++++++++++++",
"++++++++++++++++++++++++++++++++++++++++  @@@@@@@@@@@@  ++++++++++++++++++++++++++++++++++++++",
"++++++++++++++++++++++++++++++++++++++++  @@@@@@@@@@@@  ++++++++++++++++++++++++++++++++++++++",
"++++++++++++++++++++++++++++++++++++++++    @@@@@@@@    ++++++++++++++++++++++++++++++++++++++",
"++++++++++++++++++++++++++++++++++++++++    @@@@@@@@    ++++++++++++++++++++++++++++++++++++++",
"++++++++++++++++++++++++++++++++++++++++++  @@@@@@@@  ++++++++++++++++++++++++++++++++++++++++",
"++++++++++++++++++++++++++++++++++++++++++  @@@@@@@@  ++++++++++++++++++++++++++++++++++++++++",
"++++++++++++++++++++++++++++++++++++++++++    @@@@    ++++++++++++++++++++++++++++++++++++++++",
"++++++++++++++++++++++++++++++++++++++++++    @@@@    ++++++++++++++++++++++++++++++++++++++++",
"++++++++++++++++++++++++++++++++++++++++++++  @@@@  ++++++++++++++++++++++++++++++++++++++++++",
"++++++++++++++++++++++++++++++++++++++++++++  @@@@  ++++++++++++++++++++++++++++++++++++++++++",
"++++++++++++++++++++++++++++++++++++++++++++        ++++++++++++++++++++++++++++++++++++++++++",
"++++++++++++++++++++++++++++++++++++++++++++        ++++++++++++++++++++++++++++++++++++++++++",
"++++++++++++++++++++++++++++++++++++++++++++++    ++++++++++++++++++++++++++++++++++++++++++++",
"++++++++++++++++++++++++++++++++++++++++++++++    ++++++++++++++++++++++++++++++++++++++++++++"};
