/* XPM */
static char * C:\Users\alexn\Desktop\All_things_coding\Hive_main\DoomNukem\gfx\misc\alpha_xpm[] = {
"715 26 16 1",
" 	c #62987E",
".	c #C0CECA",
"+	c #000000",
"@	c #000000",
"#	c #000000",
"$	c #000000",
"%	c #000000",
"&	c #000000",
"*	c #000000",
"=	c #000000",
"-	c #000000",
";	c #000000",
">	c #000000",
",	c #000000",
"'	c #000000",
")	c #000000",
"    ...................      .....................        ...................      .....................      .......................    .......................      ...................      ......           ......          ..........                       ......    ......         ......    ......                ......           ......    ......           ......      ...................      .....................        ...................      .....................        ...................      ......................    ......           ......    ......           ......    ......           ......    ..                   ..    ..                  ..    .......................      ...................    ",
"    ...................      .....................        ...................      .....................      .......................    .......................      ...................      ......           ......          ..........                       ......    ......        ......     ......                ......           ......    ......           ......      ...................      .....................        ...................      .....................        ...................      ......................    ......           ......    ......           ......    ......           ......    ...                 ...    ...                ...    .......................      ...................    ",
"  .......................    .......................    .......................    .......................    .......................    .......................    .......................    ......           ......            ......                         ......    ......       ......      ......                .......         .......    .......          ......    .......................    .......................    .......................    .......................    .......................    ......................    ......           ......    ......           ......    ......           ......    ....               ....    ....              ....    .......................    .......................  ",
"  .......................    .......................    .......................    .......................    .......................    .......................    .......................    ......           ......            ......                         ......    ......      ......       ......                ........       ........    ........         ......    .......................    .......................    .......................    .......................    .......................    ......................    ......           ......    ......           ......    ......           ......    .....             .....    .....            .....    .......................    .......................  ",
"  ......           ......    ......           ......    ......           ......    ......           ......    ......                     ......                     ......           ......    ......           ......            ......                         ......    ......     ......        ......                .........     .........    .........        ......    ......           ......    ......           ......    ......           ......    ......           ......    ......           ......           ........           ......           ......    ......           ......    ......           ......    ......           ......    ......          ......                     ......    ......           ......  ",
"  ......           ......    ......           ......    ......           ......    ......           ......    ......                     ......                     ......           ......    ......           ......            ......                         ......    ......    ......         ......                ..........   ..........    ..........       ......    ......           ......    ......           ......    ......           ......    ......           ......    ......           ......           ........           ......           ......    ......           ......    ......           ......     ......         ......      ......        ......                     ......     ......           ......  ",
"  ......           ......    ......           ......    ......           ......    ......           ......    ......                     ......                     ......           ......    ......           ......            ......                         ......    ......   ......          ......                ........... ...........    ...........      ......    ......           ......    ......           ......    ......           ......    ......           ......    ......           ......           ........           ......           ......    ......           ......    ......           ......      ......       ......        ......      ......                     ......      ......           ......  ",
"  ......           ......    ......           ......    ......           ......    ......           ......    ......                     ......                     ......           ......    ......           ......            ......                         ......    ......  ......           ......                .......................    ............     ......    ......           ......    ......           ......    ......           ......    ......           ......    ......                            ........           ......           ......    ......           ......    ......           ......       ......     ......          ......    ......                     ......       ......           ......  ",
"  ......           ......    ......           ......    ......           ......    ......           ......    ......                     ......                     ......           ......    ......           ......            ......                         ......    ...... ......            ......                ...... ......... ......    ...... ......    ......    ......           ......    ......           ......    ......           ......    ......           ......    ......                            ........           ......           ......    ......           ......    ......           ......        ......   ......            ......  ......                     ......        ......           ......  ",
"  ......           ......    ......           ......    ......                     ......           ......    ......                     ......                     ......                     ......           ......            ......                         ......    ............             ......                ......  .......  ......    ......  ......   ......    ......           ......    ......           ......    ......           ......    ......           ......    ......                            ........           ......           ......    ......           ......    ......           ......         ...... ......              ............                     ......                          ......  ",
"  ......           ......    ......           ......    ......                     ......           ......    ......                     ......                     ......                     .......................            ......                         ......    ...........              ......                ......   .....   ......    ......   ......  ......    ......           ......    ......           ......    ......           ......    ......           ......    ......                            ........           ......           ......    ......           ......    ......           ......          ...........                ..........                     ......                           ......  ",
"  .......................    .......................    ......                     ......           ......    .......................    .......................    ......                     .......................            ......                         ......    ..........               ......                ......    ...    ......    ......    ...... ......    ......           ......    .......................    ......           ......    .......................    .....................             ........           ......           ......    ......           ......    ......           ......           .........                  ........                     ......                   ...............  ",
"  .......................    ......................     ......                     ......           ......    .......................    .......................    ......                     .......................            ......                         ......    .........                ......                ......     .     ......    ......     ............    ......           ......    .......................    ......           ......    .......................    .....................             ........           ......           ......    ......           ......    ......           ......            .......                    ......                     ......                    ...............  ",
"  .......................    ......................     ......                     ......           ......    .......................    .......................    ......       ........      .......................            ......                         ......    .........                ......                ......           ......    ......      ...........    ......           ......    .....................      ......           ......    .....................        .....................           ........           ......           ......    ......           ......    ......     .     ......            .......                    ......                    ......                     .............    ",
"  .......................    .......................    ......                     ......           ......    .......................    .......................    ......       ........      ......           ......            ......                         ......    ..........               ......                ......           ......    ......       ..........    ......           ......    .....................      ......           ......    .....................        .....................           ........           ......           ......    ......           ......    ......    ...    ......           .........                   ......                   ......                      .............    ",
"  ......           ......    ......           ......    ......                     ......           ......    ......                     ......                     ......       ..........    ......           ......            ......                         ......    ...........              ......                ......           ......    ......        .........    ......           ......    ......                     ......           ......    .............                               ......           ........           ......           ......    ......           ......    ......   .....   ......          ...........                  ......                  ......                       ......           ",
"  ......           ......    ......           ......    ......                     ......           ......    ......                     ......                     ......       ..........    ......           ......            ......                         ......    ............             ......                ......           ......    ......         ........    ......           ......    ......                     ......      ...........    ...... .......                              ......           ........           ......           ......     ......         ......     ......  .......  ......         ...... ......                 ......                 ......                        ......           ",
"  ......           ......    ......           ......    ......           ......    ......           ......    ......                     ......                     ......           ......    ......           ......            ......                         ......    ...... ......            ......                ......           ......    ......          .......    ......           ......    ......                     ......      ...........    ......  .......                             ......           ........           ......           ......      ......       ......      ...... ......... ......        ......   ......                ......                ......                         ......           ",
"  ......           ......    ......           ......    ......           ......    ......           ......    ......                     ......                     ......           ......    ......           ......            ......             ......      ......    ......  ......           ......                ......           ......    ......           ......    ......           ......    ......                     ......      ...........    ......   .......                            ......           ........           ......           ......       ......     ......       .......................       ......     ......               ......               ......                          ......           ",
"  ......           ......    ......           ......    ......           ......    ......           ......    ......                     ......                     ......           ......    ......           ......            ......             ......      ......    ......   ......          ......                ......           ......    ......           ......    ......           ......    ......                     ......      ...........    ......    .......          ......           ......           ........           ......           ......        ......   ......        ........... ...........      ......       ......              ......              ......                           ......           ",
"  ......           ......    ......           ......    ......           ......    ......           ......    ......                     ......                     ......           ......    ......           ......            ......             ......      ......    ......    ......         ......                ......           ......    ......           ......    ......           ......    ......                     ......           ......    ......     .......         ......           ......           ........           ......           ......         ...... ......         ..........   ..........     ......         ......             ......             ......                                             ",
"  ......           ......    ......           ......    ......           ......    ......           ......    ......                     ......                     ......           ......    ......           ......            ......             ......      ......    ......     ......        ......                ......           ......    ......           ......    ......           ......    ......                     ......           ......    ......      .......        ......           ......           ........           ......           ......          ...........          .........     .........    ......           ......            ......            ......                                              ",
"  ......           ......    .......................    .......................    .......................    .......................    ......                     .......................    ......           ......            ......             ..................    ......      ......       ..................    ......           ......    ......           ......    .......................    ......                     .......................    ......       .......       .......................           ........           .......................           .........           ........       ........    .....             .....            ......            .......................            ......           ",
"  ......           ......    .......................    .......................    .......................    .......................    ......                     .......................    ......           ......            ......             ..................    ......       ......      ..................    ......           ......    ......           ......    .......................    ......                     .......................    ......        .......      .......................           ........           .......................            .......            .......         .......    ....               ....            ......            .......................            ......           ",
"  ......           ......    .....................        ...................      .....................      .......................    ......                       ...................      ......           ......          ..........             ..............      ......        ......     ..................    ......           ......    ......           ......      ...................      ......                       ...................      ......         .......       ...................             ........             ...................               .....             ......           ......    ...                 ...            ......            .......................            ......           ",
"  ......           ......    .....................        ...................      .....................      .......................    ......                       ...................      ......           ......          ..........             ..............      ......         ......    ..................    ......           ......    ......           ......      ...................      ......                       ...................      ......          .......      ...................             ........             ...................                ...              ......           ......    ..                   ..            ......            .......................            ......           "};
