/* XPM */
static char * C:\Users\alexn\Desktop\All_things_coding\Hive_main\DoomNukem\gfx\misc\spawn_xpm[] = {
"128 128 16 1",
" 	c #9700EA",
".	c #C0CECA",
"+	c #000000",
"@	c #000000",
"#	c #000000",
"$	c #000000",
"%	c #000000",
"&	c #000000",
"*	c #000000",
"=	c #000000",
"-	c #000000",
";	c #000000",
">	c #000000",
",	c #000000",
"'	c #000000",
")	c #000000",
"                                                                                                                                ",
"                                                                                                                                ",
"                                                                                                                                ",
"                                                                                                                                ",
"                                                                                                                                ",
"                                                                                                                                ",
"                                                                                                                                ",
"                                                                                                                                ",
"...................      .....................        ...................      ......           ......    ......           .....",
"...................      .....................        ...................      ......           ......    ......           .....",
".....................    .......................    .......................    ......           ......    .......          .....",
".....................    .......................    .......................    ......           ......    ........         .....",
"....           ......    ......           ......    ......           ......    ......           ......    .........        .....",
"....           ......    ......           ......    ......           ......    ......           ......    ..........       .....",
"....           ......    ......           ......    ......           ......    ......           ......    ...........      .....",
"....                     ......           ......    ......           ......    ......           ......    ............     .....",
"....                     ......           ......    ......           ......    ......           ......    ...... ......    .....",
"....                     ......           ......    ......           ......    ......           ......    ......  ......   .....",
"....                     ......           ......    ......           ......    ......           ......    ......   ......  .....",
"...................      .......................    .......................    ......           ......    ......    ...... .....",
"...................      .......................    .......................    ......           ......    ......     ...........",
".....................    .....................      .......................    ......     .     ......    ......      ..........",
".....................    .....................      .......................    ......    ...    ......    ......       .........",
"               ......    ......                     ......           ......    ......   .....   ......    ......        ........",
"               ......    ......                     ......           ......    ......  .......  ......    ......         .......",
"               ......    ......                     ......           ......    ...... ......... ......    ......          ......",
"               ......    ......                     ......           ......    .......................    ......           .....",
"....           ......    ......                     ......           ......    ........... ...........    ......           .....",
"....           ......    ......                     ......           ......    ..........   ..........    ......           .....",
"....           ......    ......                     ......           ......    .........     .........    ......           .....",
".....................    ......                     ......           ......    ........       ........    ......           .....",
".....................    ......                     ......           ......    .......         .......    ......           .....",
"...................      ......                     ......           ......    ......           ......    ......           .....",
"...................      ......                     ......           ......    ......           ......    ......           .....",
"                                                                                                                                ",
"                                                                                                                                ",
"                                                                                                                                ",
"                                                                                                                                ",
"                                                                                                                                ",
"                                                                                                                                ",
"                                                                                                                                ",
"                                                                                                                                ",
"                                                                                                                                ",
"                                                                                                                                ",
"                                                                                                                                ",
"                                                                                                                                ",
"                                                                                                                                ",
"                                                                                                                                ",
"                                                                                                                                ",
"                                                                                                                                ",
"...................      .....................        ...................      ......           ......    ......           .....",
"...................      .....................        ...................      ......           ......    ......           .....",
".....................    .......................    .......................    ......           ......    .......          .....",
".....................    .......................    .......................    ......           ......    ........         .....",
"....           ......    ......           ......    ......           ......    ......           ......    .........        .....",
"....           ......    ......           ......    ......           ......    ......           ......    ..........       .....",
"....           ......    ......           ......    ......           ......    ......           ......    ...........      .....",
"....                     ......           ......    ......           ......    ......           ......    ............     .....",
"....                     ......           ......    ......           ......    ......           ......    ...... ......    .....",
"....                     ......           ......    ......           ......    ......           ......    ......  ......   .....",
"....                     ......           ......    ......           ......    ......           ......    ......   ......  .....",
"...................      .......................    .......................    ......           ......    ......    ...... .....",
"...................      .......................    .......................    ......           ......    ......     ...........",
".....................    .....................      .......................    ......     .     ......    ......      ..........",
".....................    .....................      .......................    ......    ...    ......    ......       .........",
"               ......    ......                     ......           ......    ......   .....   ......    ......        ........",
"               ......    ......                     ......           ......    ......  .......  ......    ......         .......",
"               ......    ......                     ......           ......    ...... ......... ......    ......          ......",
"               ......    ......                     ......           ......    .......................    ......           .....",
"....           ......    ......                     ......           ......    ........... ...........    ......           .....",
"....           ......    ......                     ......           ......    ..........   ..........    ......           .....",
"....           ......    ......                     ......           ......    .........     .........    ......           .....",
".....................    ......                     ......           ......    ........       ........    ......           .....",
".....................    ......                     ......           ......    .......         .......    ......           .....",
"...................      ......                     ......           ......    ......           ......    ......           .....",
"...................      ......                     ......           ......    ......           ......    ......           .....",
"                                                                                                                                ",
"                                                                                                                                ",
"                                                                                                                                ",
"                                                                                                                                ",
"                                                                                                                                ",
"                                                                                                                                ",
"                                                                                                                                ",
"                                                                                                                                ",
"                                                                                                                                ",
"                                                                                                                                ",
"                                                                                                                                ",
"                                                                                                                                ",
"                                                                                                                                ",
"                                                                                                                                ",
"                                                                                                                                ",
"                                                                                                                                ",
"...................      .....................        ...................      ......           ......    ......           .....",
"...................      .....................        ...................      ......           ......    ......           .....",
".....................    .......................    .......................    ......           ......    .......          .....",
".....................    .......................    .......................    ......           ......    ........         .....",
"....           ......    ......           ......    ......           ......    ......           ......    .........        .....",
"....           ......    ......           ......    ......           ......    ......           ......    ..........       .....",
"....           ......    ......           ......    ......           ......    ......           ......    ...........      .....",
"....                     ......           ......    ......           ......    ......           ......    ............     .....",
"....                     ......           ......    ......           ......    ......           ......    ...... ......    .....",
"....                     ......           ......    ......           ......    ......           ......    ......  ......   .....",
"....                     ......           ......    ......           ......    ......           ......    ......   ......  .....",
"...................      .......................    .......................    ......           ......    ......    ...... .....",
"...................      .......................    .......................    ......           ......    ......     ...........",
".....................    .....................      .......................    ......     .     ......    ......      ..........",
".....................    .....................      .......................    ......    ...    ......    ......       .........",
"               ......    ......                     ......           ......    ......   .....   ......    ......        ........",
"               ......    ......                     ......           ......    ......  .......  ......    ......         .......",
"               ......    ......                     ......           ......    ...... ......... ......    ......          ......",
"               ......    ......                     ......           ......    .......................    ......           .....",
"....           ......    ......                     ......           ......    ........... ...........    ......           .....",
"....           ......    ......                     ......           ......    ..........   ..........    ......           .....",
"....           ......    ......                     ......           ......    .........     .........    ......           .....",
".....................    ......                     ......           ......    ........       ........    ......           .....",
".....................    ......                     ......           ......    .......         .......    ......           .....",
"...................      ......                     ......           ......    ......           ......    ......           .....",
"...................      ......                     ......           ......    ......           ......    ......           .....",
"                                                                                                                                ",
"                                                                                                                                ",
"                                                                                                                                ",
"                                                                                                                                ",
"                                                                                                                                ",
"                                                                                                                                ",
"                                                                                                                                ",
"                                                                                                                                ",
"                                                                                                                                ",
"                                                                                                                                "};
